<svg width="313" height="313" viewBox="0 0 313 313" fill="none" xmlns="http://www.w3.org/2000/svg">
<g clip-path="url(#clip0_55_3)">
<rect width="313" height="313" fill="#1E1E1E"/>
<path d="M79.5354 84.9426L83.8239 65.3761H186.481C212.927 65.3761 233.119 69.6646 247.057 78.2417C260.995 86.6401 267.963 98.791 267.963 114.694C267.963 133.993 258.404 150.254 239.284 163.477C220.343 176.7 192.735 183.311 156.461 183.311H144.4L136.895 218.692C135.823 223.338 136.18 227.001 137.967 229.681C139.754 232.183 142.345 233.434 145.74 233.434H163.43L159.142 253H43.8868L48.1754 233.434H60.505C63.9001 233.434 66.9378 232.183 69.6181 229.681C72.2985 227.179 74.1747 223.516 75.2468 218.692L100.71 99.6844C101.782 95.0385 101.425 91.4647 99.6379 88.9631C97.8511 86.2827 95.2601 84.9426 91.865 84.9426H79.5354ZM174.151 84.9426H165.306L148.688 163.745H157.533C172.901 163.745 184.783 158.741 193.182 148.735C201.58 138.549 205.779 126.577 205.779 112.818C205.779 102.99 203.188 95.932 198.006 91.6434C193.003 87.1762 185.052 84.9426 174.151 84.9426Z" fill="#F36036"/>
</g>
<defs>
<clipPath id="clip0_55_3">
<rect width="313" height="313" fill="white"/>
</clipPath>
</defs>
</svg>
